<?xml version="1.0" encoding="utf-8"?>
<!-- Generator: Adobe Illustrator 26.0.1, SVG Export Plug-In . SVG Version: 6.00 Build 0)  -->
<svg version="1.1" id="Calque_1" xmlns="http://www.w3.org/2000/svg" xmlns:xlink="http://www.w3.org/1999/xlink" x="0px" y="0px"
	 viewBox="0 0 512 512" style="enable-background:new 0 0 512 512;" xml:space="preserve">
<style type="text/css">
	.st0{fill:#654BC3;}
	.st1{fill:#FFFFFF;}
</style>
<path class="st0" d="M341.37,512H170.63C76.39,512,0,435.61,0,341.37V170.63C0,76.39,76.39,0,170.63,0h170.74
	C435.61,0,512,76.39,512,170.63v170.74C512,435.61,435.61,512,341.37,512z"/>
<g>
	<path d="M19.93,275.44c-0.24,0.22-0.43,0.47-0.58,0.73l0.58,0L19.93,275.44z"/>
</g>
<g>
	<path class="st1" d="M488.78,323.1c-0.9-31.87-13.49-66.46-34.63-84.42c-22.01-18.48-62.78-31.8-83.55-36.81
		c-37.65-9.12-65.37-16.53-66.08-41.9c-0.14-4.52,0.69-8.67,2.3-12.4c1.14-2.67,2.69-5.14,4.59-7.34
		c7.81-9.19,21.52-14.55,37.22-15.24c6.87-0.3,16.33-0.2,25.5,4.79c13.09,6.99,17.12,12.75,33.37,40.15
		c3.16,5.26,14.33,20.46,31.92,19.67c18.45-0.84,30.41-18.68,29.66-45.16c-0.51-17.81-19.83-92.67-117.26-88.27
		c-18.53,0.84-35.71,4.18-50.96,9.91l-244.7,1.31C42.88,67.42,30.94,77.4,25.76,92.82c-5.16,15.42-2.53,33.13,6.69,45.16
		l85.87,111.82L38.97,369.15c-8.28,12.4-10.07,29.92-4.57,44.57c5.46,14.53,17.18,23.87,29.94,23.87h0.29l216.45-2.4
		c19.63,13.51,46.45,22.28,82.55,20.65C451.19,451.88,490.74,392.25,488.78,323.1z M360.31,384.04
		c-34.35,1.56-46.57-20.06-56.18-41.28c-7.34-15.89-14.06-40.47-39.79-39.31c-24.48,1.11-32.27,29.05-31.84,44.17
		c0.06,2.03,0.22,4.22,0.47,6.55l-100.32,1.14l72.75-109.42l-74.78-97.39l102.08-0.54c-1.12,7.39-1.59,15.17-1.35,23.4
		c2.43,85.9,71.71,103.86,107.64,113.05c40.7,10.62,70.57,18.45,71.58,53.59C411.38,366.6,388.21,382.78,360.31,384.04z"/>
</g>
</svg>
